<svg width="596" height="466" viewBox="0 0 596 466" fill="none" xmlns="http://www.w3.org/2000/svg">
<g clip-path="url(#clip0)">
<path opacity="0.1" d="M491.669 437.594C509.65 437.594 524.226 434.831 524.226 431.421C524.226 428.012 509.65 425.248 491.669 425.248C473.689 425.248 459.112 428.012 459.112 431.421C459.112 434.831 473.689 437.594 491.669 437.594Z" fill="#62F06E"/>
<path opacity="0.1" d="M346.199 65.7182C308.054 64.3967 271.725 52.0673 237.034 38.5816C202.344 25.0959 167.983 10.159 130.752 3.01496C106.805 -1.58056 79.4171 -2.23538 60.1268 10.6014C41.5555 22.9898 35.5557 44.3157 32.3318 64.1195C29.9035 79.021 28.4772 94.7071 35.1254 108.659C39.7461 118.345 47.9385 126.486 53.6083 135.766C73.3347 168.047 59.3901 207.855 38.0193 239.375C27.9998 254.158 16.3596 268.281 8.62111 284.002C0.882587 299.724 -2.69493 317.799 4.07701 333.881C10.7841 349.809 26.7739 361.749 44.0957 370.155C79.2757 387.234 120.715 392.118 161.152 394.891C250.637 401.014 340.594 398.365 430.315 395.705C463.52 394.726 496.867 393.729 529.531 388.59C547.672 385.735 566.396 381.205 579.569 370.267C596.283 356.386 600.427 332.884 589.223 315.481C570.433 286.28 518.497 279.029 505.348 247.698C498.123 230.449 505.543 211.241 516.051 195.248C538.589 160.932 576.362 130.828 578.349 91.61C579.716 64.674 561.557 37.6967 533.479 24.9484C504.052 11.5866 463.237 13.2679 441.536 35.3842C419.17 58.1317 379.882 66.8921 346.199 65.7182Z" fill="#62F06E"/>
<path d="M155.604 150.355C155.604 150.355 117.326 160.805 130.637 185.662C130.637 185.662 131.335 190.613 136.267 191.299C136.267 191.299 135.666 189.3 139.678 188.7C141.101 188.471 142.492 188.073 143.822 187.516C145.626 186.767 147.135 185.447 148.117 183.758C148.117 183.758 157.193 175.824 155.446 157.161C155.446 157.161 157.207 152.356 156.8 151.414L151.384 156.28C151.384 156.28 155.096 160.122 154.677 164.504C154.677 164.504 151.697 156.361 150.537 156.963C150.29 157.047 147.789 159.668 147.789 159.668C147.789 159.668 154.209 166.371 153.362 173.124C153.362 173.124 151.099 162.941 146.818 160.636L143.24 164.757C143.24 164.757 150.383 171.512 149.709 179.231C149.709 179.231 146.976 168.668 142.517 165.707L139.538 170.23C139.538 170.23 146.387 176.964 145.778 183.383C145.778 183.383 141.387 171.498 138.927 171.319C138.927 171.319 136.451 175.639 136.353 177.104C136.353 177.104 141.156 182.085 140.46 185.747C140.46 185.747 136.685 178.115 135.764 178.383C135.764 178.383 134.034 184.874 134.888 188.594C133.922 185.183 133.866 181.579 134.724 178.141C132.823 179.214 131.279 180.821 130.282 182.764C130.282 182.764 129.555 178.835 135.161 176.572C135.161 176.572 136.759 171.547 137.406 171.052C137.406 171.052 131.559 172.505 128.633 175.204C128.633 175.204 130.468 170.649 138.141 169.779L140.984 165.18C140.984 165.18 133.167 166.728 130.36 168.902C130.36 168.902 132.954 164.541 141.809 164.074L145.272 160.003C145.272 160.003 138.426 160.781 134.796 162.573C134.796 162.573 138.071 159.051 146.308 158.87L148.945 156.423C148.945 156.423 143.954 157.09 142.542 157.403C141.129 157.717 140.923 157.368 140.923 157.368C143.716 155.872 146.871 155.184 150.034 155.382C150.034 155.382 155.883 150.723 155.604 150.355Z" fill="#62F06E"/>
<path opacity="0.4" d="M314.232 243.475C314.232 243.475 275.954 253.926 289.265 278.782C289.265 278.782 289.963 283.734 294.895 284.42C294.895 284.42 294.294 282.42 298.316 281.817C299.739 281.588 301.13 281.19 302.46 280.633C304.239 279.883 305.727 278.574 306.699 276.905C306.699 276.905 315.781 268.958 314.034 250.295C314.034 250.295 315.789 245.503 315.342 244.575L309.923 249.43C309.923 249.43 313.635 253.272 313.226 257.652C313.226 257.652 310.236 249.511 309.086 250.111C308.839 250.194 306.328 252.819 306.328 252.819C306.328 252.819 312.761 259.528 311.91 266.271C311.91 266.271 309.648 256.089 305.357 253.787L301.818 257.861C301.818 257.861 308.961 264.616 308.287 272.335C308.287 272.335 305.554 261.772 301.095 258.811L298.129 263.341C298.129 263.341 304.965 270.068 304.366 276.484C304.366 276.484 299.975 264.599 297.515 264.42C297.515 264.42 295.039 268.74 294.932 270.208C294.932 270.208 299.745 275.186 299.049 278.848C299.049 278.848 295.273 271.216 294.352 271.484C294.352 271.484 292.623 277.975 293.476 281.695C292.516 278.282 292.463 274.677 293.322 271.238C291.419 272.313 289.872 273.921 288.87 275.865C288.87 275.865 288.154 271.933 293.759 269.669C293.759 269.669 295.308 264.661 296.004 264.15C296.004 264.15 290.157 265.602 287.231 268.302C287.231 268.302 289.066 263.747 296.746 262.929L299.589 258.33C299.589 258.33 291.762 259.881 288.965 262.052C288.965 262.052 291.559 257.692 300.414 257.224L303.877 253.154C303.877 253.154 297.025 253.945 293.391 255.727C293.391 255.727 296.676 252.201 304.912 252.021L307.55 249.573C307.55 249.573 302.559 250.24 301.137 250.557C299.715 250.874 299.518 250.522 299.518 250.522C302.314 249.024 305.472 248.335 308.639 248.532C308.639 248.532 314.491 243.85 314.232 243.475Z" fill="#62F06E"/>
<path opacity="0.1" d="M43.2579 230.14C43.2579 230.14 39.475 190.565 12.7389 199.483C12.7389 199.483 7.74404 199.326 6.23632 204.067C6.23632 204.067 8.27881 203.826 8.21128 207.881C8.19744 209.311 8.34877 210.738 8.66232 212.134C9.09357 214.035 10.1326 215.745 11.6219 217.002C11.6219 217.002 17.9035 227.321 36.5327 228.806C36.5327 228.806 40.9635 231.358 41.9443 231.07L38.0911 224.896C38.0911 224.896 33.6733 227.903 29.4246 226.732C29.4246 226.732 37.9541 225.174 37.5588 223.975C37.475 223.728 35.3795 220.792 35.3795 220.792C35.3795 220.792 27.6834 225.978 21.1757 223.987C21.1757 223.987 31.5865 223.499 34.5923 219.671L31.1678 215.412C31.1678 215.412 23.2646 221.318 15.8075 219.318C15.8075 219.318 26.6776 218.432 30.3556 214.542L26.4033 210.836C26.4033 210.836 18.6139 216.428 12.3945 214.736C12.3945 214.736 24.8229 212.44 25.4432 210.049C25.4432 210.049 21.6124 206.864 20.1832 206.511C20.1832 206.511 14.501 210.397 10.9768 209.091C10.9768 209.091 19.1259 206.671 19.0254 205.758C19.0254 205.758 12.932 202.943 9.08283 203.146C12.6107 202.782 16.173 203.344 19.4191 204.776C18.6811 202.717 17.36 200.918 15.6173 199.598C15.6173 199.598 19.6124 199.566 20.9229 205.511C20.9229 205.511 25.5835 207.897 25.9666 208.671C25.9666 208.671 25.5261 202.662 23.3657 199.308C23.3657 199.308 27.546 201.9 27.0463 209.616L31.0971 213.255C31.0971 213.255 30.9426 205.266 29.2351 202.143C29.2351 202.143 33.0928 205.44 32.0418 214.256L35.4721 218.37C35.4721 218.37 35.8542 211.477 34.7195 207.61C34.7195 207.61 37.6374 211.446 36.4082 219.606L38.3757 222.619C38.3757 222.619 38.5633 217.587 38.4897 216.136C38.4161 214.685 38.7977 214.544 38.7977 214.544C39.8014 217.556 39.9475 220.786 39.2196 223.875C39.2196 223.875 42.8502 230.333 43.2579 230.14Z" fill="#62F06E"/>
<path opacity="0.1" d="M268.761 138.456C268.761 138.456 250.773 124.988 244.343 139.576C244.343 139.576 242.381 141.612 243.789 144.048C243.789 144.048 244.461 143.098 246.147 144.673C246.744 145.229 247.404 145.713 248.115 146.113C249.078 146.649 250.189 146.856 251.28 146.703C251.28 146.703 257.975 147.995 265.685 140.733C265.685 140.733 268.437 139.848 268.696 139.329L264.635 138.615C264.635 138.615 264.211 141.606 262.119 142.945C262.119 142.945 264.706 138.78 264.034 138.479C263.899 138.414 261.871 138.184 261.871 138.184C261.871 138.184 261.117 143.387 257.816 145.352C257.816 145.352 261.571 140.803 261.105 138.09L258.023 137.925C258.023 137.925 257.498 143.464 253.82 145.847C253.82 145.847 257.575 140.957 257.357 137.936L254.304 138.184C254.304 138.184 253.685 143.57 250.614 145.529C250.614 145.529 254.38 139.441 253.608 138.284C253.608 138.284 250.82 138.68 250.131 139.14C250.131 139.14 249.595 142.998 247.709 143.977C247.709 143.977 249.801 139.641 249.376 139.34C249.376 139.34 245.881 140.821 244.508 142.508C245.696 140.893 247.285 139.616 249.117 138.804C247.977 138.329 246.724 138.198 245.51 138.426C245.51 138.426 247.007 136.739 249.966 138.456C249.966 138.456 252.736 137.411 253.207 137.541C253.207 137.541 250.526 135.435 248.304 135.069C248.304 135.069 250.98 134.302 254.015 137.429L257.074 137.116C257.074 137.116 253.673 134.167 251.722 133.671C251.722 133.671 254.569 133.311 257.852 137.099L260.869 137.234C260.869 137.234 258.14 134.45 256.084 133.447C256.084 133.447 258.789 133.683 261.736 137.299L263.745 137.624C263.745 137.624 261.712 135.63 261.076 135.111C260.439 134.592 260.527 134.373 260.527 134.373C262.167 135.1 263.573 136.268 264.588 137.748C264.588 137.748 268.684 138.697 268.761 138.456Z" fill="#62F06E"/>
<path opacity="0.5" d="M63.2863 49.2636C63.2863 49.2636 25.51 36.9069 23.025 65.0018C23.025 65.0018 20.8931 69.5247 24.6354 72.8059C24.6354 72.8059 25.2216 70.8337 28.939 72.515C30.2582 73.1007 31.6411 73.5303 33.0597 73.7952C34.9765 74.1481 36.9557 73.8642 38.6955 72.9867C38.6955 72.9867 50.6429 71.3499 59.4292 54.8008C59.4292 54.8008 63.5402 51.7662 63.6667 50.7429L56.4667 51.8723C56.4667 51.8723 57.4636 57.1193 54.7095 60.5533C54.7095 60.5533 56.6888 52.1055 55.3927 51.9829C55.1288 51.9512 51.6024 52.7167 51.6024 52.7167C51.6024 52.7167 53.2597 61.8929 48.8401 67.0369C48.8401 67.0369 52.5364 57.2911 50.226 53.007L44.9695 54.4801C44.9695 54.4801 47.2255 64.0591 42.4251 70.1254C42.4251 70.1254 45.9371 59.8031 43.8574 54.868L38.8945 57.0127C38.8945 57.0127 40.9088 66.3983 36.8775 71.4217C36.8775 71.4217 39.7394 59.0836 37.7899 57.5853C37.7899 57.5853 33.345 59.8298 32.4513 60.9919C32.4513 60.9919 33.743 67.7584 31.1401 70.4691C31.1401 70.4691 32.1831 62.0191 31.2983 61.7462C31.2983 61.7462 26.2883 66.2201 24.946 69.8255C26.0147 66.4436 27.9513 63.4019 30.5625 61.0042C28.3798 60.8517 26.2009 61.345 24.297 62.4227C24.297 62.4227 25.8565 58.7437 31.7864 59.9394C31.7864 59.9394 35.83 56.6082 36.6967 56.5678C36.6967 56.5678 31.0097 54.5627 27.0771 55.2015C27.0771 55.2015 31.1169 52.4113 37.9722 55.9152L42.9181 53.6552C42.9181 53.6552 35.5577 50.6419 31.9957 50.9128C31.9957 50.9128 36.5627 48.704 44.2209 53.1806L49.3488 51.685C49.3488 51.685 43.1977 48.5703 39.1767 48.0715C39.1767 48.0715 43.8516 46.9277 50.8401 51.3118L54.3806 50.7177C54.3806 50.7177 49.8465 48.5751 48.4924 48.0867C47.1383 47.5983 47.1591 47.1726 47.1591 47.1726C50.3183 47.4575 53.3365 48.6162 55.8761 50.5193C55.8761 50.5193 63.2458 49.6959 63.2863 49.2636Z" fill="#62F06E"/>
<path opacity="0.4" d="M154.589 83.6468C154.589 83.6468 130.453 52.0493 112.491 73.7683C112.491 73.7683 108.186 76.3288 109.398 81.1064C109.398 81.1064 110.996 79.8156 113.078 83.2959C113.832 84.5296 114.725 85.6721 115.74 86.7009C117.118 88.0816 118.904 88.9793 120.833 89.2598C120.833 89.2598 131.612 94.6947 148.229 86.0554C148.229 86.0554 153.335 85.8894 154.02 85.1175L147.44 81.9389C147.44 81.9389 145.286 86.8215 141.07 88.0852C141.07 88.0852 147.491 82.2521 146.51 81.4056C146.312 81.2416 142.975 79.8719 142.975 79.8719C142.975 79.8719 139.18 88.3514 132.619 90.1012C132.619 90.1012 141.188 84.1788 141.696 79.3139L136.541 77.547C136.541 77.547 132.977 86.7083 125.569 88.9767C125.569 88.9767 134.365 82.4594 135.376 77.2259L130.067 76.1724C130.067 76.1724 126.464 85.0271 120.251 86.8907C120.251 86.8907 129.597 78.3584 128.836 76.0165C128.836 76.0165 123.908 75.3405 122.509 75.7925C122.509 75.7925 119.737 82.0966 116.096 82.8462C116.096 82.8462 121.728 76.4758 121.154 75.7561C121.154 75.7561 114.503 76.5892 111.347 78.8045C114.142 76.6256 117.459 75.2168 120.967 74.7178C119.251 73.3596 117.177 72.5314 114.998 72.3346C114.998 72.3346 118.366 70.1909 122.578 74.5353C122.578 74.5353 127.801 74.0982 128.525 74.5467C128.525 74.5467 124.982 69.6779 121.377 67.9697C121.377 67.9697 126.295 67.9662 129.947 74.7808L135.305 75.7187C135.305 75.7187 130.958 69.0294 127.84 67.2331C127.84 67.2331 132.865 67.9977 136.622 76.0324L141.704 77.7139C141.704 77.7139 138.396 71.6531 135.369 68.9558C135.369 68.9558 139.867 70.6696 143.141 78.2514L146.396 79.7699C146.396 79.7699 143.901 75.3943 143.077 74.1974C142.253 73.0005 142.529 72.8079 142.529 72.8079C144.967 74.8392 146.796 77.5056 147.814 80.512C147.814 80.512 154.33 84.0208 154.589 83.6468Z" fill="#62F06E"/>
<path opacity="0.4" d="M76.5877 112.044C76.5877 112.044 37.7615 120.554 49.856 146.076C49.856 146.076 50.3011 151.058 55.1616 151.989C55.1616 151.989 54.6597 149.956 58.7418 149.563C60.1755 149.398 61.5859 149.072 62.9462 148.59C64.7809 147.931 66.3505 146.691 67.4172 145.059C67.4172 145.059 76.8911 137.585 76.1391 118.838C76.1391 118.838 78.135 114.141 77.7343 113.186L72.0789 117.769C72.0789 117.769 75.6372 121.773 74.922 126.157C74.922 126.157 72.3465 117.876 71.1956 118.409C70.9488 118.493 68.3116 120.973 68.3116 120.973C68.3116 120.973 74.3911 128.001 73.217 134.733C73.217 134.733 71.4681 124.442 67.3047 121.931L63.5181 125.858C63.5181 125.858 70.3299 132.968 69.2465 140.65C69.2465 140.65 67.0538 129.959 62.7516 126.779L59.5608 131.165C59.5608 131.165 66.0493 138.23 65.1206 144.615C65.1206 144.615 61.3415 132.522 58.894 132.217C58.894 132.217 56.2066 136.433 56.0197 137.862C56.0197 137.862 60.5599 143.043 59.6958 146.696C59.6958 146.696 56.3119 138.887 55.4164 139.102C55.4164 139.102 53.3571 145.495 54.0266 149.289C53.2358 145.829 53.3644 142.223 54.3997 138.83C52.4473 139.807 50.8228 141.334 49.7256 143.223C49.7256 143.223 49.2003 139.27 54.9124 137.29C54.9124 137.29 56.7126 132.373 57.4813 131.881C57.4813 131.881 51.567 133.037 48.5017 135.585C48.5017 135.585 50.5647 131.119 58.2793 130.696L61.4005 126.235C61.4005 126.235 53.3726 127.259 50.5288 129.324C50.5288 129.324 53.3346 125.069 62.2119 125.089L65.8767 121.193C65.8767 121.193 58.9928 121.631 55.2763 123.232C55.2763 123.232 58.723 119.861 66.9654 120.119L69.7254 117.806C69.7254 117.806 64.7039 118.219 63.2679 118.464C61.832 118.708 61.6554 118.349 61.6554 118.349C64.5235 116.995 67.7113 116.464 70.8641 116.814C70.8641 116.814 76.7975 112.435 76.5877 112.044Z" fill="#62F06E"/>
<path opacity="0.4" d="M502.436 291.763C502.436 291.763 463.63 300.266 475.714 325.759C475.714 325.759 476.159 330.741 481.02 331.671C481.02 331.671 480.518 329.638 484.597 329.236C486.032 329.082 487.444 328.755 488.801 328.263C490.639 327.609 492.21 326.368 493.272 324.732C493.272 324.732 502.746 317.258 501.948 298.537C501.948 298.537 503.941 293.83 503.543 292.886L497.885 297.458C497.885 297.458 501.446 301.473 500.731 305.857C500.731 305.857 498.152 297.566 497.005 298.109C496.758 298.193 494.117 300.663 494.117 300.663C494.117 300.663 500.197 307.69 499.023 314.422C499.023 314.422 497.277 304.141 493.11 301.621L489.327 305.558C489.327 305.558 496.139 312.668 495.065 320.346C495.065 320.346 492.863 309.658 488.557 306.469L485.367 310.855C485.367 310.855 491.855 317.92 490.923 324.294C490.923 324.294 487.144 312.202 484.7 311.907C484.7 311.907 482.022 316.119 481.825 317.552C481.825 317.552 486.375 322.729 485.501 326.385C485.501 326.385 482.118 318.576 481.222 318.792C481.222 318.792 479.163 325.185 479.832 328.979C479.041 325.519 479.17 321.913 480.205 318.519C478.25 319.492 476.624 321.02 475.531 322.913C475.531 322.913 475.003 318.95 480.715 316.97C480.715 316.97 482.525 312.049 483.287 311.571C483.287 311.571 477.369 312.717 474.304 315.265C474.304 315.265 476.37 310.808 484.095 310.383L487.206 305.924C487.206 305.924 479.307 307.037 476.407 309.099C476.407 309.099 479.213 304.844 488.087 304.854L491.755 300.968C491.755 300.968 484.871 301.406 481.155 303.007C481.155 303.007 484.602 299.636 492.844 299.894L495.601 297.571C495.601 297.571 490.579 297.984 489.147 298.239C487.714 298.493 487.534 298.124 487.534 298.124C490.399 296.764 493.587 296.229 496.739 296.58C496.739 296.58 502.679 292.154 502.436 291.763Z" fill="#62F06E"/>
<path opacity="0.4" d="M571.45 307.346C571.45 307.346 532.647 315.86 544.728 341.342C544.728 341.342 545.183 346.321 550.034 347.255C550.034 347.255 549.532 345.222 553.614 344.83C555.045 344.668 556.451 344.34 557.805 343.85C559.63 343.189 561.192 341.957 562.26 340.335C562.26 340.335 571.723 332.865 570.922 314.134C570.922 314.134 572.928 309.434 572.517 308.482L566.859 313.055C566.859 313.055 570.42 317.069 569.705 321.454C569.705 321.454 567.129 313.173 565.979 313.706C565.732 313.79 563.091 316.26 563.091 316.26C563.091 316.26 569.171 323.287 567.997 330.019C567.997 330.019 566.251 319.738 562.088 317.228L558.301 321.155C558.301 321.155 565.113 328.264 564.039 335.943C564.039 335.943 561.837 325.255 557.535 322.075L554.344 326.462C554.344 326.462 560.832 333.527 559.914 339.908C559.914 339.908 556.121 327.809 553.677 327.514C553.677 327.514 551 331.726 550.803 333.158C550.803 333.158 555.353 338.336 554.479 341.992C554.479 341.992 551.095 334.183 550.2 334.398C550.2 334.398 548.14 340.791 548.82 344.582C548.029 341.124 548.154 337.52 549.183 334.126C547.23 335.104 545.606 336.631 544.509 338.519C544.509 338.519 543.99 334.553 549.705 332.583C549.705 332.583 551.506 327.666 552.274 327.174C552.274 327.174 546.36 328.33 543.295 330.878C543.295 330.878 545.358 326.412 553.082 325.986L556.194 321.528C556.194 321.528 548.295 322.64 545.395 324.703C545.395 324.703 548.201 320.447 557.078 320.468L560.743 316.571C560.743 316.571 553.859 317.009 550.142 318.61C550.142 318.61 553.589 315.239 561.831 315.497L564.591 313.185C564.591 313.185 559.57 313.598 558.144 313.839C556.718 314.08 556.521 313.728 556.521 313.728C559.389 312.373 562.577 311.842 565.73 312.193C565.73 312.193 571.693 307.738 571.45 307.346Z" fill="#62F06E"/>
<path opacity="0.4" d="M344.737 55.9063C344.737 55.9063 306.964 43.5596 304.476 71.6446C304.476 71.6446 302.344 76.1675 306.086 79.4486C306.086 79.4486 306.672 77.4764 310.39 79.1577C311.705 79.75 313.086 80.1842 314.504 80.4512C316.421 80.8026 318.399 80.5187 320.14 79.6426C320.14 79.6426 332.087 78.0059 340.886 61.4634C340.886 61.4634 344.984 58.4222 345.124 57.4055L337.927 58.4787C337.927 58.4787 338.914 63.7291 336.17 67.1597C336.17 67.1597 338.139 58.7152 336.843 58.5927C336.579 58.561 333.063 59.3232 333.063 59.3232C333.063 59.3232 334.743 68.4695 330.33 73.6333C330.33 73.6333 334.036 63.8842 331.716 59.6034L326.459 61.0765C326.459 61.0765 328.725 70.6522 323.918 76.7316C323.918 76.7316 327.44 66.4061 325.351 61.4743L320.378 63.6223C320.378 63.6223 322.448 72.9779 318.367 78.0181C318.367 78.0181 321.229 65.68 319.27 64.1851C319.27 64.1851 314.825 66.4295 313.931 67.5917C313.931 67.5917 315.233 74.3547 312.63 77.0655C312.63 77.0655 313.663 68.6189 312.782 68.3558C312.782 68.3558 307.768 72.8199 306.426 76.4253C307.499 73.0452 309.435 70.0045 312.043 67.6039C309.864 67.4567 307.69 67.9485 305.787 69.0191C305.787 69.0191 307.346 65.34 313.276 66.5358C313.276 66.5358 317.313 63.2179 318.177 63.1676C318.177 63.1676 312.49 61.1624 308.561 61.8111C308.561 61.8111 312.607 59.0077 319.466 62.5215L324.411 60.2615C324.411 60.2615 317.051 57.2482 313.492 57.529C313.492 57.529 318.056 55.3103 325.704 59.7902L330.845 58.3011C330.845 58.3011 324.684 55.1898 320.67 54.6777C320.67 54.6777 325.345 53.534 332.323 57.9214L335.874 57.3239C335.874 57.3239 331.336 55.1385 329.975 54.6304C328.615 54.1222 328.675 53.7821 328.675 53.7821C331.831 54.0719 334.845 55.2315 337.383 57.1321C337.383 57.1321 344.746 56.3549 344.737 55.9063Z" fill="#62F06E"/>
<path opacity="0.4" d="M423.208 210.871C423.208 210.871 400.556 178.198 381.604 199.106C381.604 199.106 377.169 201.414 378.174 206.294C378.174 206.294 379.832 205.082 381.757 208.649C382.455 209.928 383.303 211.12 384.281 212.2C385.59 213.655 387.339 214.64 389.26 215.007C389.26 215.007 399.78 220.915 416.768 213.042C416.768 213.042 421.871 213.097 422.592 212.368L416.202 208.872C416.202 208.872 413.831 213.663 409.571 214.733C409.571 214.733 416.227 209.172 415.276 208.316C415.084 208.138 411.816 206.613 411.816 206.613C411.816 206.613 407.653 214.92 401.012 216.366C401.012 216.366 409.847 210.839 410.573 206.032L405.493 204.031C405.493 204.031 401.519 213.022 394.023 214.968C394.023 214.968 403.046 208.859 404.347 203.67L399.089 202.379C399.089 202.379 395.047 211.074 388.799 212.641C388.799 212.641 398.52 204.532 397.871 202.163C397.871 202.163 392.968 201.269 391.55 201.662C391.55 201.662 388.5 207.829 384.795 208.424C384.795 208.424 390.712 202.309 390.174 201.566C390.174 201.566 383.489 202.103 380.236 204.163C383.123 202.123 386.492 200.871 390.011 200.531C388.361 199.097 386.327 198.178 384.162 197.887C384.162 197.887 387.623 195.888 391.625 200.425C391.625 200.425 396.849 200.219 397.564 200.703C397.564 200.703 394.241 195.672 390.717 193.815C390.717 193.815 395.63 194.022 398.973 200.997L404.283 202.182C404.283 202.182 400.232 195.294 397.215 193.408C397.215 193.408 402.195 194.397 405.597 202.585L410.641 204.478C410.641 204.478 407.605 198.281 404.716 195.47C404.716 195.47 409.14 197.386 412.061 205.098L415.248 206.772C415.248 206.772 412.956 202.283 412.205 201.04C411.453 199.796 411.686 199.508 411.686 199.508C414.037 201.641 415.749 204.387 416.629 207.438C416.629 207.438 422.933 211.229 423.208 210.871Z" fill="#62F06E"/>
<path opacity="0.1" d="M219.44 370.854C219.44 370.854 188.497 345.893 176.22 371.27C176.22 371.27 172.605 374.698 174.946 379.137C174.946 379.137 176.207 377.498 179.057 380.388C180.075 381.409 181.213 382.303 182.447 383.051C184.107 384.078 186.059 384.531 188.001 384.34C188.001 384.34 199.761 387.052 213.844 374.701C213.844 374.701 218.758 373.322 219.244 372.419L212.116 370.869C212.116 370.869 211.184 376.142 207.392 378.363C207.392 378.363 212.253 371.208 211.066 370.597C210.838 370.476 207.268 369.945 207.268 369.945C207.268 369.945 205.599 379.081 199.64 382.346C199.64 382.346 206.561 374.547 205.916 369.721L200.481 369.239C200.481 369.239 199.194 378.983 192.546 382.943C192.546 382.943 199.493 374.541 199.277 369.195L193.859 369.445C193.859 369.445 192.429 378.929 186.876 382.188C186.876 382.188 193.92 371.671 192.627 369.576C192.627 369.576 187.675 370.098 186.46 370.862C186.46 370.862 185.269 377.644 181.876 379.256C181.876 379.256 185.838 371.723 185.106 371.155C185.106 371.155 178.843 373.554 176.303 376.452C178.502 373.67 181.391 371.514 184.683 370.198C182.7 369.284 180.493 368.971 178.336 369.297C178.336 369.297 181.089 366.414 186.16 369.653C186.16 369.653 191.096 367.98 191.944 368.243C191.944 368.243 187.308 364.307 183.435 363.56C183.435 363.56 188.208 362.382 193.371 368.134L198.805 367.769C198.805 367.769 192.981 362.307 189.561 361.34C189.561 361.34 194.612 360.884 200.18 367.798L205.509 368.195C205.509 368.195 200.857 363.108 197.274 361.205C197.274 361.205 202.05 361.789 207.023 368.376L210.564 369.082C210.564 369.082 207.119 365.413 206.013 364.455C204.907 363.497 205.09 363.127 205.09 363.127C207.942 364.515 210.352 366.669 212.052 369.349C212.052 369.349 219.288 371.28 219.44 370.854Z" fill="#62F06E"/>
<path d="M296.924 163.474C296.924 163.474 266.764 137.576 253.694 162.561C253.694 162.561 249.987 165.91 252.186 170.386C252.186 170.386 253.48 168.78 256.248 171.753C257.235 172.808 258.346 173.741 259.556 174.531C261.183 175.604 263.119 176.11 265.062 175.97C265.062 175.97 276.724 179.045 291.182 167.117C291.182 167.117 296.136 165.89 296.649 165L289.589 163.229C289.589 163.229 288.499 168.456 284.637 170.569C284.637 170.569 289.702 163.532 288.559 162.917C288.317 162.789 284.773 162.14 284.773 162.14C284.773 162.14 282.824 171.228 276.788 174.298C276.788 174.298 283.947 166.716 283.444 161.886L278.041 161.271C278.041 161.271 276.457 170.984 269.687 174.744C269.687 174.744 276.895 166.561 276.844 161.214L271.432 161.286C271.432 161.286 269.688 170.689 264.055 173.81C264.055 173.81 271.417 163.516 270.189 161.388C270.189 161.388 265.227 161.748 263.958 162.486C263.958 162.486 262.557 169.229 259.117 170.736C259.117 170.736 263.314 163.343 262.605 162.746C262.605 162.746 256.265 164.95 253.642 167.767C255.928 165.058 258.882 162.993 262.211 161.778C260.254 160.804 258.056 160.423 255.886 160.683C255.886 160.683 258.732 157.879 263.781 161.246C263.781 161.246 268.773 159.742 269.605 160.021C269.605 160.021 265.137 156.028 261.249 155.076C261.249 155.076 266.05 154.044 271.036 159.955L276.474 159.764C276.474 159.764 270.83 154.12 267.429 153.048C267.429 153.048 272.501 152.75 277.849 159.827L283.166 160.416C283.166 160.416 278.675 155.185 275.216 153.196C275.216 153.196 279.967 153.932 284.746 160.662L288.248 161.48C288.248 161.48 284.902 157.712 283.838 156.718C282.775 155.723 282.961 155.363 282.961 155.363C285.768 156.838 288.111 159.064 289.729 161.793C289.729 161.793 296.749 163.897 296.924 163.474Z" fill="#62F06E"/>
<path d="M198.664 272.729C198.664 272.729 186.892 234.749 162.56 248.911C162.56 248.911 157.637 249.776 157.116 254.733C157.116 254.733 159.09 254.064 159.827 258.055C160.106 259.473 160.551 260.853 161.154 262.166C161.958 263.952 163.327 265.423 165.049 266.354C165.049 266.354 173.288 275.172 191.87 272.818C191.87 272.818 196.718 274.424 197.632 273.938L192.554 268.697C192.554 268.697 188.846 272.532 184.454 272.269C184.454 272.269 192.483 269.008 191.847 267.879C191.764 267.632 189.048 265.204 189.048 265.204C189.048 265.204 182.566 271.862 175.802 271.225C175.802 271.225 185.924 268.62 188.051 264.275L183.813 260.832C183.813 260.832 177.305 268.192 169.57 267.774C169.57 267.774 180.026 264.693 182.84 260.137L178.213 257.299C178.213 257.299 171.727 264.366 165.297 263.967C165.297 263.967 177.017 259.191 177.146 256.713C177.146 256.713 172.746 254.382 171.265 254.3C171.265 254.3 166.485 259.225 162.784 258.695C162.784 258.695 170.232 254.694 169.984 253.798C169.984 253.798 163.449 252.278 159.722 253.266C163.101 252.188 166.705 252.015 170.173 252.764C169.038 250.897 167.384 249.402 165.413 248.462C165.413 248.462 169.318 247.612 171.763 253.14C171.763 253.14 176.824 254.531 177.352 255.211C177.352 255.211 175.706 249.413 172.905 246.573C172.905 246.573 177.526 248.256 178.602 255.911L183.307 258.657C183.307 258.657 181.525 250.867 179.23 248.153C179.23 248.153 183.67 250.602 184.442 259.44L188.619 262.772C188.619 262.772 187.604 255.944 185.7 252.371C185.7 252.371 189.329 255.547 189.785 263.775L192.324 266.33C192.324 266.33 191.486 261.359 191.12 259.952C190.753 258.545 191.098 258.329 191.098 258.329C192.691 261.076 193.491 264.21 193.407 267.384C193.407 267.384 198.273 273.005 198.664 272.729Z" fill="#62F06E"/>
<path opacity="0.1" d="M412.457 425.248C421.223 425.248 428.329 424.046 428.329 422.564C428.329 421.081 421.223 419.88 412.457 419.88C403.691 419.88 396.585 421.081 396.585 422.564C396.585 424.046 403.691 425.248 412.457 425.248Z" fill="#62F06E"/>
<path opacity="0.1" d="M354.598 466C363.364 466 370.47 464.798 370.47 463.316C370.47 461.833 363.364 460.632 354.598 460.632C345.832 460.632 338.726 461.833 338.726 463.316C338.726 464.798 345.832 466 354.598 466Z" fill="#62F06E"/>
<path opacity="0.1" d="M55.3944 445.123C64.1602 445.123 71.2663 443.921 71.2663 442.438C71.2663 440.956 64.1602 439.754 55.3944 439.754C46.6286 439.754 39.5225 440.956 39.5225 442.438C39.5225 443.921 46.6286 445.123 55.3944 445.123Z" fill="#62F06E"/>
<path opacity="0.1" d="M474.984 463.316C483.75 463.316 490.856 462.114 490.856 460.632C490.856 459.149 483.75 457.948 474.984 457.948C466.218 457.948 459.112 459.149 459.112 460.632C459.112 462.114 466.218 463.316 474.984 463.316Z" fill="#62F06E"/>
<path d="M491.51 430.587C504.599 430.587 515.209 428.791 515.209 426.575C515.209 424.36 504.599 422.564 491.51 422.564C478.422 422.564 467.812 424.36 467.812 426.575C467.812 428.791 478.422 430.587 491.51 430.587Z" fill="#62F06E"/>
<path d="M501.335 420.009C502.417 419.129 503.204 417.94 503.592 416.6C503.887 415.243 503.309 413.62 502.019 413.125C500.569 412.57 499.019 413.573 497.84 414.588C496.661 415.603 495.323 416.765 493.785 416.552C494.575 415.834 495.166 414.924 495.5 413.91C495.835 412.896 495.902 411.813 495.695 410.765C495.628 410.331 495.445 409.923 495.164 409.585C494.357 408.724 492.901 409.096 491.934 409.774C488.87 411.933 488.015 416.098 487.997 419.85C487.691 418.499 487.95 417.089 487.944 415.721C487.939 414.352 487.555 412.771 486.383 412.051C485.663 411.649 484.849 411.446 484.025 411.461C482.646 411.414 481.108 411.55 480.171 412.559C478.992 413.809 479.304 415.915 480.318 417.278C481.332 418.641 482.882 419.52 484.308 420.475C485.449 421.158 486.424 422.087 487.161 423.195C487.244 423.349 487.314 423.511 487.367 423.679H496.007C497.941 422.704 499.734 421.469 501.335 420.009Z" fill="#62F06E"/>
<path d="M44.7388 429.961C44.7388 429.961 53.7857 429.684 56.5263 427.737C59.2669 425.791 70.4533 423.472 71.1311 426.593C71.8089 429.714 84.7339 442.102 74.5141 442.185C64.2943 442.267 50.7681 440.592 48.0452 438.928C45.3223 437.265 44.7388 429.961 44.7388 429.961Z" fill="#A8A8A8"/>
<path opacity="0.2" d="M74.685 441.099C64.4652 441.182 50.939 439.506 48.2161 437.843C46.1415 436.58 45.3164 432.044 45.0394 429.95H44.7388C44.7388 429.95 45.3282 437.259 48.0334 438.916C50.7386 440.574 64.2825 442.255 74.5023 442.173C77.4492 442.173 78.4688 441.099 78.4158 439.542C78.0032 440.492 76.8775 441.082 74.685 441.099Z" fill="black"/>
</g>
<defs>
<clipPath id="clip0">
<rect width="595" height="466" fill="white" transform="translate(0.5)"/>
</clipPath>
</defs>
</svg>
