<svg width="1082" height="514" viewBox="0 0 1082 514" fill="none" xmlns="http://www.w3.org/2000/svg">
<g clip-path="url(#clip0)">
<path d="M205.35 276.091L204.931 283.717C203.381 307.098 192.186 336.196 188.226 363.903C186.246 377.757 186.095 391.467 190.709 404.191C195.322 416.914 204.909 428.254 220.479 436.391C236.585 444.808 252.579 441.101 263.469 435.559C268.118 433.203 271.958 430.574 274.91 428.224C279.822 435.487 284.557 441.438 288.917 446.005C296.756 454.262 303.958 458.679 309.472 461.264C314.986 463.848 319.04 465.075 318.923 465.014L326.29 453.649C322.166 451.018 319.317 450.955 315.157 449.02C310.998 447.084 305.602 443.818 298.792 436.663C285.194 422.365 266.138 392.466 243.797 328.992L231.091 333.288C244.487 371.344 256.631 397.75 267.673 416.596C265.257 418.662 261.816 421.322 257.37 423.574C248.821 427.933 238.302 430.49 226.724 424.439C213.559 417.559 206.84 409.263 203.325 399.61C199.811 389.958 199.675 378.505 201.48 365.837C204.754 342.912 213.815 317.157 216.929 292.603C225.189 294.483 253.245 301.359 292.088 321.658C314.123 333.174 324.056 344.932 327.875 354.625C331.695 364.318 329.873 372.638 326.494 379.104C323.127 385.547 316.201 390.783 308.875 394.622C301.55 398.46 295.013 400.334 290.156 403.145L296.922 414.764C298.16 414.044 306.78 410.971 315.259 406.517C323.739 402.062 333.054 395.668 338.446 385.35C343.252 376.153 345.888 363.206 340.501 349.574C335.114 335.941 322.213 322.186 298.333 309.706C251.601 285.284 212.862 277.639 212.862 277.639L205.35 276.091Z" fill="#C4FFBA"/>
</g>
<g clip-path="url(#clip1)">
<path d="M17.6392 158.89L17.5674 160.195C17.3022 164.197 15.3862 169.177 14.7085 173.919C14.3696 176.29 14.3437 178.636 15.1334 180.814C15.923 182.991 17.5637 184.932 20.2284 186.325C22.9849 187.765 25.7222 187.131 27.586 186.182C28.3816 185.779 29.0389 185.329 29.5441 184.927C30.3847 186.17 31.1952 187.189 31.9413 187.97C33.2829 189.383 34.5154 190.139 35.4591 190.582C36.4028 191.024 37.0967 191.234 37.0767 191.224L38.3374 189.278C37.6317 188.828 37.144 188.818 36.4322 188.486C35.7204 188.155 34.7969 187.596 33.6313 186.371C31.304 183.924 28.0428 178.807 24.2192 167.944L22.0446 168.679C24.3373 175.192 26.4156 179.712 28.3055 182.937C27.8919 183.291 27.3031 183.746 26.5421 184.131C25.0791 184.877 23.2788 185.315 21.2973 184.279C19.0441 183.102 17.8941 181.682 17.2926 180.03C16.6912 178.378 16.6678 176.418 16.9768 174.25C17.5371 170.326 19.0879 165.918 19.6209 161.716C21.0345 162.038 25.8362 163.215 32.4839 166.689C36.2552 168.66 37.9551 170.672 38.6088 172.331C39.2626 173.99 38.9508 175.414 38.3725 176.52C37.7962 177.623 36.6108 178.519 35.357 179.176C34.1033 179.833 32.9846 180.154 32.1533 180.635L33.3113 182.624C33.5232 182.5 34.9984 181.974 36.4496 181.212C37.9008 180.45 39.4951 179.355 40.4179 177.589C41.2405 176.015 41.6915 173.8 40.7696 171.466C39.8476 169.133 37.6397 166.779 33.5529 164.643C25.5549 160.464 18.9248 159.155 18.9248 159.155L17.6392 158.89Z" fill="#C4FFBA"/>
</g>
<path d="M1071.8 279.463L1070.64 280.062C1067.05 281.859 1061.79 282.729 1057.36 284.546C1055.14 285.454 1053.1 286.62 1051.63 288.404C1050.15 290.187 1049.31 292.585 1049.45 295.588C1049.61 298.694 1051.54 300.733 1053.3 301.86C1054.05 302.342 1054.77 302.681 1055.38 302.913C1054.73 304.267 1054.26 305.482 1053.97 306.521C1053.43 308.394 1053.4 309.839 1053.5 310.877C1053.59 311.915 1053.76 312.62 1053.76 312.597L1056.08 312.699C1056.11 311.863 1055.87 311.437 1055.8 310.655C1055.72 309.873 1055.74 308.794 1056.2 307.169C1057.13 303.923 1059.89 298.52 1067.33 289.721L1065.59 288.219C1061.14 293.494 1058.29 297.574 1056.47 300.837C1055.95 300.66 1055.26 300.382 1054.54 299.922C1053.16 299.038 1051.87 297.707 1051.76 295.474C1051.63 292.935 1052.28 291.224 1053.4 289.869C1054.52 288.514 1056.19 287.501 1058.22 286.67C1061.89 285.166 1066.47 284.271 1070.37 282.603C1070.81 283.985 1072.22 288.721 1072.59 296.213C1072.8 300.463 1071.93 302.947 1070.83 304.351C1069.73 305.755 1068.34 306.207 1067.1 306.269C1065.85 306.33 1064.48 305.762 1063.28 305.014C1062.08 304.265 1061.24 303.463 1060.4 302.99L1059.27 304.995C1059.49 305.115 1060.69 306.121 1062.08 306.987C1063.47 307.852 1065.22 308.672 1067.21 308.574C1068.98 308.486 1071.12 307.753 1072.67 305.777C1074.21 303.8 1075.13 300.704 1074.9 296.099C1074.45 287.085 1072.22 280.706 1072.22 280.706L1071.8 279.463Z" fill="#C4FFBA"/>
<path d="M166.702 109.696C155.891 113.267 148.327 118.767 140.957 124.096C133.074 129.794 125.632 135.171 114.164 138.742C106.511 141.172 98.4107 142.157 90.0568 141.81L84.1227 141.563L104.909 210.804L107.896 210.952C115.694 211.328 123.333 210.602 130.611 208.793C131.766 208.504 132.889 208.195 133.983 207.867C146.196 204.2 154.574 198.154 162.7 192.298C171.265 186.121 179.344 180.292 191.82 177.179C198.291 175.567 205.103 174.929 212.071 175.268L218.053 175.56L197.26 106.296L194.3 106.123C186.547 105.689 178.893 106.419 171.543 108.285C169.857 108.711 168.247 109.185 166.702 109.696ZM169.341 117.681C170.702 117.226 172.115 116.802 173.597 116.42C175.133 116.031 176.691 115.713 178.255 115.436C180.668 119.545 185.627 121.655 190.394 120.224C191.087 120.015 191.741 119.736 192.359 119.409L203.434 156.302C202.739 156.369 202.039 156.496 201.346 156.704C196.337 158.208 193.299 163.089 193.913 168.11C192.525 168.373 191.149 168.682 189.785 169.021C175.76 172.569 166.598 179.114 157.759 185.497C149.184 191.686 141.058 197.542 128.589 200.649C127.043 201.033 125.473 201.345 123.892 201.619C121.474 197.525 116.526 195.424 111.768 196.853C111.075 197.061 110.421 197.34 109.803 197.667L98.7275 160.774C99.4231 160.707 100.123 160.58 100.816 160.372C105.86 158.857 108.897 153.919 108.226 148.861C111.089 148.318 113.919 147.651 116.67 146.775C129.46 142.794 137.814 136.745 145.899 130.897C153.016 125.745 159.813 120.865 169.341 117.681ZM146.214 142.324C147.965 148.157 146.373 151.114 140.54 152.865L142.974 160.972C146.119 160.028 148.614 158.611 150.58 156.868L155.948 174.752L164.055 172.318L154.32 139.891L146.214 142.324ZM177.831 137.251C176.219 137.735 174.864 138.84 174.066 140.323C173.268 141.805 173.092 143.544 173.576 145.157C174.06 146.769 175.165 148.124 176.648 148.921C178.13 149.719 179.869 149.896 181.482 149.412C183.094 148.927 184.448 147.823 185.246 146.34C186.044 144.858 186.221 143.119 185.737 141.506C185.252 139.894 184.148 138.539 182.665 137.741C181.182 136.944 179.444 136.767 177.831 137.251ZM120.68 167.665C119.068 168.149 117.714 169.254 116.916 170.736C116.118 172.219 115.941 173.957 116.425 175.57C116.91 177.183 118.014 178.537 119.497 179.335C120.98 180.133 122.718 180.309 124.331 179.825C125.943 179.341 127.298 178.236 128.096 176.753C128.894 175.271 129.07 173.532 128.586 171.919C128.102 170.307 126.997 168.953 125.514 168.155C124.032 167.357 122.293 167.18 120.68 167.665Z" fill="#C4FFBA"/>
<path d="M93.0366 251.929C85.8094 248.392 79.2709 247.434 72.9143 246.485C66.1164 245.469 59.6997 244.509 52.141 240.647C47.0738 238.093 42.4946 234.589 38.4451 230.286L35.5688 227.23L11.8609 272.483L13.2973 274.034C17.0507 278.077 21.269 281.484 25.8401 284.166C26.5665 284.59 27.2864 284.989 28.0017 285.364C35.9837 289.546 43.2038 290.63 50.2028 291.687C57.5821 292.798 64.5436 293.844 72.3854 298.435C76.4512 300.818 80.208 303.861 83.5615 307.475L86.4395 310.578L110.156 265.309L108.745 263.759C105.043 259.71 100.814 256.297 96.1793 253.609C95.1171 252.991 94.069 252.435 93.0366 251.929ZM90.4247 257.267C91.3371 257.71 92.2605 258.194 93.1978 258.733C94.166 259.295 95.1103 259.904 96.0377 260.538C95.2265 263.805 96.6898 267.322 99.8053 268.954C100.258 269.191 100.727 269.373 101.2 269.514L88.5685 293.625C88.1837 293.316 87.7674 293.034 87.3144 292.797C84.0405 291.082 80.0941 292.047 77.9237 294.887C77.0923 294.334 76.2446 293.81 75.3879 293.308C66.5491 288.171 58.6861 286.951 51.0666 285.809C43.6766 284.699 36.6775 283.643 28.8423 279.052C27.8718 278.482 26.9245 277.864 25.9899 277.221C26.7911 273.959 25.329 270.452 22.2193 268.823C21.7663 268.586 21.2978 268.404 20.8242 268.264L33.4561 244.152C33.8409 244.462 34.2572 244.743 34.7102 244.98C38.0071 246.708 41.9812 245.713 44.1413 242.826C45.8564 243.966 47.6151 245.027 49.4384 245.944C57.8675 250.252 65.0765 251.323 72.0505 252.363C78.1925 253.276 84.0375 254.169 90.4247 257.267ZM66.5638 258.292C64.5667 262.104 62.3019 262.812 58.4897 260.814L55.7139 266.113C57.769 267.189 59.73 267.706 61.5843 267.797L55.4608 279.485L60.7591 282.261L71.8622 261.068L66.5638 258.292ZM85.0449 271.35C83.991 270.798 82.7609 270.687 81.6253 271.042C80.4896 271.397 79.5414 272.188 78.9893 273.242C78.4371 274.296 78.3263 275.526 78.6811 276.662C79.0359 277.797 79.8273 278.746 80.8812 279.298C81.9352 279.85 83.1652 279.961 84.3009 279.606C85.4365 279.251 86.3847 278.46 86.9369 277.406C87.489 276.352 87.5998 275.122 87.245 273.986C86.8902 272.85 86.0988 271.902 85.0449 271.35ZM41.1434 258.479C40.0894 257.927 38.8594 257.816 37.7237 258.171C36.5881 258.526 35.6399 259.318 35.0877 260.371C34.5356 261.425 34.4248 262.655 34.7796 263.791C35.1344 264.927 35.9258 265.875 36.9797 266.427C38.0336 266.979 39.2637 267.09 40.3994 266.735C41.535 266.38 42.4832 265.589 43.0353 264.535C43.5875 263.481 43.6983 262.251 43.3435 261.115C42.9887 259.98 42.1973 259.032 41.1434 258.479Z" fill="#C4FFBA"/>
<path d="M1022.15 158.489C1006.86 151.859 993.238 150.499 979.994 149.141C965.83 147.687 952.461 146.311 936.452 139.04C925.723 134.239 915.913 127.424 907.123 118.907L900.88 112.856L856.135 208.759L859.255 211.83C867.407 219.838 876.461 226.487 886.175 231.601C887.719 232.41 889.247 233.167 890.762 233.874C907.678 241.767 922.722 243.322 937.305 244.842C952.681 246.437 967.186 247.938 983.851 256.691C992.491 261.235 1000.56 267.174 1007.84 274.332L1014.09 280.48L1058.85 184.545L1055.78 181.472C1047.74 173.445 1038.66 166.786 1028.81 161.665C1026.56 160.487 1024.34 159.437 1022.15 158.489ZM1017.26 169.784C1019.19 170.613 1021.14 171.527 1023.13 172.554C1025.19 173.624 1027.2 174.795 1029.18 176.017C1027.82 182.856 1031.18 189.993 1037.78 193.074C1038.74 193.522 1039.73 193.854 1040.72 194.098L1016.88 245.197C1016.05 244.593 1015.17 244.05 1014.21 243.602C1007.27 240.365 999.193 242.737 994.973 248.822C993.2 247.757 991.396 246.754 989.575 245.796C970.796 236.008 954.408 234.233 938.533 232.596C923.135 231.004 908.551 229.486 891.9 220.733C889.838 219.646 887.818 218.458 885.823 217.216C887.17 210.389 883.811 203.272 877.22 200.197C876.26 199.749 875.274 199.417 874.28 199.173L898.121 148.074C898.947 148.678 899.835 149.221 900.795 149.669C907.782 152.929 915.911 150.492 920.106 144.312C923.763 146.508 927.504 148.536 931.364 150.259C949.217 158.37 964.236 159.899 978.767 161.387C991.563 162.692 1003.74 163.982 1017.26 169.784ZM970.598 168.564C958.213 162.786 942.266 170.679 935.044 186.158C927.822 201.636 932.018 218.928 944.403 224.707C956.788 230.485 972.736 222.592 979.957 207.113C987.179 191.635 982.983 174.343 970.598 168.564ZM965.359 179.793C971.445 182.632 972.988 192.746 968.729 201.874C964.47 211.003 955.728 216.318 949.642 213.478C943.556 210.639 942.013 200.525 946.272 191.397C950.531 182.268 959.273 176.953 965.359 179.793ZM1007.47 199.439C1005.23 198.397 1002.68 198.284 1000.36 199.127C998.044 199.969 996.157 201.697 995.115 203.931C994.073 206.164 993.961 208.72 994.803 211.036C995.646 213.353 997.374 215.239 999.607 216.281C1001.84 217.323 1004.4 217.436 1006.71 216.593C1009.03 215.751 1010.92 214.023 1011.96 211.789C1013 209.556 1013.11 207 1012.27 204.683C1011.43 202.367 1009.7 200.481 1007.47 199.439ZM915.394 176.99C913.16 175.948 910.604 175.835 908.288 176.678C905.972 177.52 904.086 179.248 903.043 181.482C902.001 183.715 901.889 186.271 902.732 188.587C903.574 190.904 905.302 192.79 907.536 193.832C909.769 194.874 912.325 194.986 914.641 194.144C916.957 193.302 918.844 191.574 919.886 189.34C920.928 187.107 921.04 184.551 920.198 182.234C919.355 179.918 917.627 178.032 915.394 176.99Z" fill="#C4FFBA"/>
<path d="M1011.95 314.211C1006.19 315.689 1002.05 318.287 998.025 320.803C993.715 323.493 989.646 326.031 983.543 327.485C979.469 328.48 975.213 328.707 970.872 328.23L967.789 327.891L976.167 364.71L977.718 364.892C981.768 365.365 985.775 365.258 989.631 364.573C990.243 364.463 990.84 364.342 991.422 364.209C997.916 362.732 1002.5 359.878 1006.94 357.114C1011.62 354.199 1016.04 351.448 1022.65 350.267C1026.08 349.657 1029.65 349.566 1033.27 349.989L1036.38 350.354L1028 313.522L1026.46 313.327C1022.43 312.826 1018.42 312.936 1014.52 313.648C1013.63 313.81 1012.77 314 1011.95 314.211ZM1013.04 318.466C1013.77 318.277 1014.52 318.106 1015.31 317.96C1016.12 317.811 1016.94 317.701 1017.77 317.612C1018.88 319.838 1021.39 321.114 1023.92 320.537C1024.29 320.453 1024.64 320.331 1024.98 320.182L1029.44 339.8C1029.08 339.81 1028.71 339.852 1028.34 339.936C1025.67 340.542 1023.92 342.977 1024.06 345.616C1023.33 345.704 1022.6 345.816 1021.88 345.944C1014.44 347.296 1009.44 350.382 1004.6 353.395C999.916 356.316 995.474 359.08 988.866 360.257C988.047 360.402 987.218 360.509 986.384 360.596C985.27 358.377 982.765 357.107 980.235 357.682C979.867 357.766 979.516 357.889 979.182 358.037L974.718 338.42C975.083 338.409 975.452 338.368 975.821 338.284C978.503 337.673 980.261 335.208 980.09 332.548C981.602 332.366 983.1 332.119 984.565 331.76C991.371 330.139 995.938 327.283 1000.36 324.522C1004.25 322.089 1007.97 319.788 1013.04 318.466ZM999.627 328.333C994.872 329.415 992.106 335.129 993.458 341.072C994.81 347.014 999.777 350.969 1004.53 349.887C1009.29 348.805 1012.05 343.09 1010.7 337.148C1009.35 331.205 1004.38 327.251 999.627 328.333ZM1000.61 332.643C1002.94 332.112 1005.59 334.624 1006.39 338.129C1007.19 341.633 1005.89 345.044 1003.55 345.576C1001.21 346.108 998.566 343.595 997.769 340.091C996.971 336.586 998.272 333.175 1000.61 332.643ZM1016.77 328.965C1015.92 329.16 1015.17 329.688 1014.7 330.432C1014.23 331.176 1014.08 332.076 1014.28 332.934C1014.47 333.791 1015 334.536 1015.74 335.004C1016.49 335.473 1017.39 335.626 1018.25 335.431C1019.1 335.236 1019.85 334.708 1020.32 333.964C1020.78 333.22 1020.94 332.32 1020.74 331.462C1020.55 330.605 1020.02 329.86 1019.28 329.392C1018.53 328.923 1017.63 328.77 1016.77 328.965ZM985.914 342.788C985.057 342.983 984.312 343.511 983.843 344.255C983.375 345 983.222 345.9 983.417 346.757C983.612 347.614 984.14 348.359 984.884 348.828C985.628 349.296 986.528 349.45 987.385 349.254C988.243 349.059 988.988 348.532 989.456 347.787C989.925 347.043 990.078 346.143 989.883 345.286C989.688 344.428 989.16 343.683 988.416 343.215C987.671 342.747 986.772 342.593 985.914 342.788Z" fill="#C4FFBA"/>
<path d="M606.075 115.578C603.843 110.065 600.718 106.312 597.688 102.653C594.448 98.7401 591.391 95.0453 589.137 89.1905C587.608 85.2852 586.817 81.0972 586.712 76.7314L586.637 73.6302L551.262 86.8363L551.287 88.3983C551.358 92.475 551.998 96.4315 553.19 100.163C553.381 100.755 553.58 101.33 553.789 101.889C556.118 108.128 559.556 112.287 562.887 116.322C566.399 120.575 569.714 124.585 571.765 130.981C572.826 134.299 573.392 137.827 573.454 141.47L573.507 144.598L608.894 131.388L608.883 129.839C608.844 125.783 608.201 121.819 606.976 118.053C606.697 117.188 606.394 116.365 606.075 115.578ZM602.004 117.227C602.288 117.92 602.557 118.643 602.807 119.402C603.062 120.189 603.282 120.99 603.479 121.796C601.421 123.194 600.491 125.851 601.4 128.287C601.532 128.641 601.7 128.972 601.892 129.283L583.043 136.319C582.984 135.959 582.894 135.599 582.762 135.244C581.807 132.685 579.159 131.269 576.563 131.761C576.378 131.047 576.17 130.34 575.946 129.641C573.617 122.453 569.892 117.902 566.262 113.514C562.743 109.257 559.412 105.222 557.366 98.8299C557.113 98.0376 556.896 97.23 556.699 96.415C558.75 95.0148 559.675 92.3638 558.768 89.9329C558.636 89.5787 558.468 89.2474 558.276 88.9367L577.125 81.9003C577.184 82.2605 577.274 82.6208 577.406 82.975C578.368 85.5522 581.046 86.9655 583.659 86.4426C584.041 87.9163 584.485 89.3681 585.036 90.7721C587.549 97.3018 590.988 101.448 594.312 105.462C597.242 108.995 600.018 112.37 602.004 117.227ZM590.439 105.244C588.733 100.676 582.701 98.6946 576.992 100.826C571.282 102.958 568.024 108.407 569.729 112.975C571.435 117.544 577.467 119.525 583.176 117.393C588.886 115.262 592.144 109.813 590.439 105.244ZM586.297 106.79C587.135 109.035 584.998 111.994 581.63 113.252C578.263 114.509 574.709 113.674 573.871 111.429C573.033 109.184 575.171 106.225 578.538 104.968C581.905 103.711 585.459 104.546 586.297 106.79ZM592.095 122.322C591.787 121.498 591.165 120.83 590.365 120.465C589.565 120.1 588.653 120.068 587.829 120.375C587.005 120.683 586.337 121.305 585.972 122.105C585.607 122.905 585.575 123.818 585.882 124.642C586.19 125.465 586.812 126.133 587.612 126.498C588.412 126.863 589.324 126.896 590.148 126.588C590.972 126.281 591.64 125.658 592.005 124.858C592.37 124.058 592.403 123.146 592.095 122.322ZM574.286 93.5779C573.978 92.754 573.356 92.0861 572.556 91.721C571.756 91.3559 570.844 91.3236 570.02 91.6312C569.196 91.9387 568.528 92.561 568.163 93.361C567.798 94.161 567.765 95.0733 568.073 95.8972C568.381 96.721 569.003 97.389 569.803 97.7541C570.603 98.1191 571.515 98.1515 572.339 97.8439C573.163 97.5363 573.831 96.9141 574.196 96.1141C574.561 95.314 574.593 94.4018 574.286 93.5779Z" fill="#C4FFBA"/>
<path d="M774.914 99.7161L771.263 100.414C760.039 102.429 744.983 100.561 731.432 101.946C724.657 102.639 718.165 104.178 712.698 107.852C707.232 111.525 703.003 117.385 700.989 125.694C698.906 134.289 702.536 141.406 706.433 145.898C708.091 147.817 709.784 149.322 711.241 150.44C708.388 153.612 706.134 156.548 704.489 159.143C701.511 163.815 700.271 167.735 699.698 170.643C699.126 173.551 699.022 175.609 699.037 175.547L705.27 177.691C706.028 175.434 705.723 174.081 706.149 171.89C706.574 169.698 707.482 166.766 710.061 162.709C715.216 154.608 727.097 142.096 754.448 124.088L750.927 118.592C734.528 129.389 723.485 138.227 715.882 145.656C714.622 144.757 712.962 143.445 711.376 141.61C708.313 138.085 705.87 133.418 707.367 127.239C709.07 120.213 712.198 116.065 716.344 113.272C720.489 110.478 725.882 109.068 732.076 108.432C743.287 107.285 756.515 108.538 768.476 107.124C768.559 111.246 768.608 125.303 763.585 146.031C760.736 157.791 756.35 163.863 752.221 166.806C748.092 169.748 743.949 169.866 740.498 169.029C737.06 168.196 733.774 165.54 731.1 162.532C728.427 159.523 726.774 156.656 724.876 154.693L720.183 159.253C720.669 159.753 723.133 163.463 726.233 166.944C729.332 170.425 733.447 174.073 738.953 175.407C743.861 176.597 750.285 176.32 756.09 172.174C761.895 168.029 766.875 160.32 769.963 147.577C776.006 122.638 775.065 103.445 775.065 103.445L774.914 99.7161Z" fill="#C4FFBA"/>
<g clip-path="url(#clip2)">
<path d="M373.849 26.5236L372.941 30.1279C370.03 41.1531 361.981 54.0142 357.517 66.8829C355.285 73.3173 353.94 79.8526 354.963 86.359C355.986 92.8654 359.513 99.1725 366.195 104.505C373.108 110.021 381.093 109.735 386.81 108.099C389.249 107.405 391.328 106.506 392.956 105.657C394.628 109.582 396.338 112.865 397.997 115.451C400.975 120.123 404.005 122.902 406.399 124.649C408.793 126.395 410.616 127.358 410.566 127.318L415.14 122.572C413.415 120.933 412.059 120.638 410.252 119.327C408.445 118.016 406.17 115.955 403.581 111.905C398.412 103.812 392.085 87.7603 387.305 55.364L380.836 56.2368C383.703 75.6602 387.053 89.402 390.578 99.4303C389.232 100.193 387.342 101.144 385.008 101.807C380.52 103.096 375.258 103.341 370.289 99.3754C364.638 94.8664 362.198 90.2795 361.415 85.3422C360.633 80.4048 361.631 74.9208 363.669 69.0372C367.361 58.3894 374.081 46.9271 377.848 35.4865C381.619 37.1512 394.384 43.0406 411.055 56.3435C420.512 63.8904 424.166 70.4295 425.091 75.4147C426.015 80.3999 424.373 84.2052 422.158 86.9804C419.952 89.7455 416.157 91.6038 412.301 92.7576C408.445 93.9114 405.148 94.1997 402.567 95.0917L404.721 101.27C405.379 101.041 409.782 100.373 414.246 99.0327C418.711 97.692 423.754 95.5018 427.288 91.0736C430.438 87.1263 432.898 81.1861 431.591 74.1736C430.283 67.1611 425.397 59.3924 415.148 51.214C395.091 35.2089 377.294 27.9606 377.294 27.9606L373.849 26.5236Z" fill="#C4FFBA"/>
</g>
<circle cx="150.455" cy="247.514" r="7.33929" fill="#C4FFBA"/>
<circle cx="90.3882" cy="95.4246" r="12.8882" fill="#C4FFBA"/>
<circle cx="472.813" cy="440.898" r="12.8882" fill="#C4FFBA"/>
<circle cx="489.718" cy="54.7293" r="12.8882" fill="#C4FFBA"/>
<circle cx="812.855" cy="175.225" r="10.1742" fill="#C4FFBA"/>
<circle cx="1072.46" cy="243.845" r="3.66964" fill="#C4FFBA"/>
<circle cx="935.368" cy="381.972" r="8.04495" fill="#C4FFBA"/>
<circle cx="584.955" cy="182.585" r="8.04495" fill="#C4FFBA"/>
<circle cx="681.281" cy="398.062" r="8.04495" fill="#C4FFBA"/>
<defs>
<clipPath id="clip0">
<rect width="215.762" height="215.762" fill="white" transform="translate(103.276 413.179) rotate(-62.4084)"/>
</clipPath>
<clipPath id="clip1">
<rect width="36.9267" height="36.9267" fill="white" transform="translate(0.169739 182.352) rotate(-62.4084)"/>
</clipPath>
<clipPath id="clip2">
<rect width="105" height="105" fill="white" transform="translate(312.361 82.5364) rotate(-51.4112)"/>
</clipPath>
</defs>
</svg>
